<?xml version="1.0" encoding="utf-8"?>
<!-- Generator: Adobe Illustrator 26.0.3, SVG Export Plug-In . SVG Version: 6.00 Build 0)  -->
<svg version="1.1" id="Camada_1" xmlns="http://www.w3.org/2000/svg" xmlns:xlink="http://www.w3.org/1999/xlink" x="0px" y="0px"
	 viewBox="0 0 1236 520" style="enable-background:new 0 0 1236 520;" xml:space="preserve">
<style type="text/css">
	.st0{fill:#FE0568;}
	.st1{fill:#00B2CD;}
	.st2{fill:transparent;}
</style>
<g>
	<g>
		<path class="st0" d="M269.17,236.37c-16.28,38.58-32.17,75.1-47.08,112.02c-8.74,21.64-23.55,33.82-46.99,34.33
			c-24.1,0.52-40.37-11.09-50.42-32.9c-28.43-61.75-57.28-123.3-85.89-184.96c-12.67-27.3-4.15-50.33,22.72-61.94
			c26.01-11.24,51.07-1.29,61.97,24.92c16.2,38.95,32.18,77.99,48.27,116.98c1.27,3.07,2.66,6.08,4.6,10.52
			c2.09-4.48,3.75-7.77,5.18-11.15c16.05-37.93,32.34-75.75,47.96-113.85c8.17-19.94,22.55-31,43.73-31.03
			c21.21-0.03,35.46,11.23,43.79,31.01c16.25,38.57,33.21,76.83,49.89,115.22c1.31,3.01,2.71,5.99,4.86,10.71
			c6.19-15.32,11.77-28.99,17.25-42.7c11.68-29.22,23.08-58.56,35.04-87.66c7.96-19.38,24.09-29,43.61-27.04
			c19.97,2,37.55,17.19,41.55,35.57c1.89,8.66,0.18,16.82-3.37,24.47c-30.65,65.89-61.23,131.81-92.44,197.43
			c-8.94,18.81-25.64,26.71-46.13,26.43c-20.28-0.28-35.65-9.29-44.22-27.77c-16.47-35.54-32.33-71.37-48.45-107.08
			C273.09,244.56,271.48,241.27,269.17,236.37z"/>
		<path class="st0" d="M696.63,343.01c-15.29,21.16-33.44,34.33-57.04,38.4c-24.92,4.3-49.66,2.87-72.99-7.52
			c-32.21-14.34-44.99-42.23-50.32-74.91c-3.47-21.33-2.21-42.83-2.32-64.27c-0.15-31.19-0.33-62.39,0.21-93.57
			c0.41-23.94,17.4-40.28,42.57-42.31c29.15-2.35,50.32,10.4,55.38,33.75c1.12,5.17,1.06,10.66,1.07,16.01
			c0.08,37.9,0.04,75.8,0.05,113.7c0,3.02-0.15,6.06,0.13,9.05c1.33,14.14,4.12,27.85,19.46,33.47c16.42,6.02,31.88,3.22,44.97-8.57
			c11.07-9.98,15.8-23.12,15.87-37.82c0.18-36.56,0.27-73.11,0.09-109.67c-0.09-19.1,4.93-35.6,23.42-44.24
			c19.77-9.24,39.89-8.79,58.57,3.13c12.96,8.27,17.82,21.57,17.86,36.38c0.18,64.39,0.3,128.79-0.03,193.18
			c-0.11,20.82-11.04,35.73-30.07,41.82c-20.76,6.64-40.5,5.22-56.92-11.07C700.47,361.87,697.83,353.92,696.63,343.01z"/>
		<path class="st0" d="M1114.64,260.54c-23.17,0-46.34,0.32-69.5-0.17c-7.85-0.17-8.69,2.43-7.21,9.23
			c5.63,25.8,21.03,38.91,47.58,40.92c21.39,1.62,41.14-4.04,60.69-11.56c8.11-3.12,16.17-6.45,24.95-7.54
			c15.68-1.93,26.77,4.73,32.12,19.54c7.76,21.51-0.21,40.94-21.24,51.18c-17.28,8.41-35.6,13.84-54.39,17.48
			c-33.22,6.44-66.29,5.52-98.31-5.79c-47.6-16.81-76.39-50.5-86.04-100.09c-5.95-30.58-4.13-60.82,6.7-90.14
			c20.56-55.62,75.58-89.54,135.38-86.19c78.28,4.39,122.67,61.38,121.61,138.17c-0.24,17.2-8.48,24.79-25.87,24.91
			C1158.95,260.66,1136.79,260.54,1114.64,260.54z"/>
		<path class="st1" d="M892.09,294.03c-18.63-2.26-37.29-4.34-55.88-6.86c-8.58-1.16-12.12-5.89-11.58-15.3
			c4.34-74.96,8.19-149.94,12.23-224.91c0.75-13.97,9.19-21.9,23.05-20.34c30.31,3.39,60.57,7.21,90.79,11.32
			c15.93,2.17,21.02,10.47,16.8,26.07c-19.68,72.68-39.58,145.29-58.97,218.04C906.03,291.47,901.12,294.87,892.09,294.03z"/>
		<path class="st1" d="M865.69,388.62c-8.17-0.93-21.48-2.24-34.74-4.01c-13.59-1.82-23.12-12.49-22.52-26.27
			c0.54-12.32,1.93-24.68,3.99-36.84c2.18-12.89,13.93-21.81,26.87-20.73c14.65,1.23,29.29,2.95,43.83,5.1
			c13.9,2.06,22.59,12.51,22.08,26.56c-0.39,10.67-1.46,21.36-2.97,31.93C899.69,382.18,889.08,390.24,865.69,388.62z"/>
		<path class="st2" d="M1078.69,213.58c-12.41,0-24.82-0.05-37.22,0.03c-3.39,0.02-5.92-0.21-5.23-4.79
			c4.81-31.91,24.03-49.14,56.45-42.88c17.72,3.42,32.04,25.34,30.45,43.6c-0.44,5.09-3.52,3.97-6.23,3.99
			C1104.18,213.64,1091.44,213.58,1078.69,213.58z"/>
	</g>
	<g>
		<path d="M67.45,479.21H39.59l-5.95,13.78H29l22.49-51.66h4.06l22.42,51.66h-4.64L67.45,479.21z M65.71,475.29l-12.19-28.51
			l-12.26,28.51H65.71z"/>
		<path d="M268.2,466.51v23.58c-1.89,1.02-4.47,1.85-7.76,2.5c-3.29,0.65-6.6,0.98-9.94,0.98c-5.03,0-9.36-1.05-12.99-3.16
			c-3.63-2.1-6.4-5.14-8.31-9.1c-1.91-3.97-2.87-8.71-2.87-14.22c0-5.47,0.95-10.18,2.87-14.15c1.91-3.97,4.65-6.99,8.23-9.07
			c3.58-2.08,7.81-3.12,12.7-3.12c7.3,0,13.16,2.25,17.56,6.75l-1.89,3.55c-2.47-2.22-4.95-3.83-7.44-4.82
			c-2.49-0.99-5.26-1.49-8.31-1.49c-6.09,0-10.8,1.93-14.11,5.8c-3.31,3.87-4.97,9.38-4.97,16.54c0,7.3,1.68,12.89,5.04,16.76
			c3.36,3.87,8.21,5.8,14.55,5.8c4.88,0,9.41-0.8,13.57-2.39v-16.91H250.5v-3.84H268.2z"/>
		<path d="M424.54,441.33h31.85v3.84h-27.42v19.59h25.97v3.99h-25.97v20.39h27.42v3.85h-31.85V441.33z M431.29,436.91l8.42-10.96
			h3.41l8.42,10.96h-4.57l-5.51-7.91l-5.59,7.91H431.29z"/>
		<path d="M651.04,441.33v51.66h-3.48l-32.79-44.04v44.04h-4.21v-51.66h3.56l32.72,44.04v-44.04H651.04z"/>
		<path d="M816.97,490.41c-3.53-2.1-6.24-5.15-8.13-9.14c-1.89-3.99-2.83-8.72-2.83-14.18c0-5.42,0.94-10.11,2.83-14.07
			c1.89-3.97,4.59-7,8.13-9.11c3.53-2.1,7.69-3.16,12.48-3.16c3.58,0,6.86,0.57,9.83,1.7c2.98,1.14,5.55,2.82,7.73,5.04l-1.89,3.55
			c-2.47-2.22-4.93-3.83-7.4-4.82c-2.47-0.99-5.22-1.49-8.27-1.49c-5.95,0-10.57,1.95-13.86,5.84c-3.29,3.89-4.93,9.4-4.93,16.51
			c0,7.16,1.63,12.7,4.9,16.61c3.27,3.92,7.9,5.88,13.89,5.88c3.05,0,5.8-0.49,8.27-1.49c2.47-0.99,4.93-2.6,7.4-4.83l1.89,3.56
			c-2.18,2.22-4.75,3.9-7.73,5.04c-2.97,1.14-6.25,1.7-9.83,1.7C824.66,493.57,820.5,492.52,816.97,490.41z"/>
		<path d="M1001.17,441.33h4.5v51.66h-4.5V441.33z"/>
		<path d="M1196.26,479.21h-27.86l-5.95,13.78h-4.64l22.49-51.66h4.06l22.42,51.66h-4.64L1196.26,479.21z M1194.52,475.29
			l-12.19-28.51l-12.26,28.51H1194.52z"/>
	</g>
</g>
</svg>
